# xmcd
#
# Track frame offsets:
#	150
#	23470
#	49441
#	76837
#	102344
#	128562
#	149354
#	189275
#	213503
#	242673
#	261836
#	286902
#	308792
#	331844
#
# Disc length: 4634
#
# Revision: 1
# Processed by: cddbd v1.5.1PL0 Copyright (c) Steve Scherf et al.
# Submitted via: AltoMP3_Maker 3.0
# Normalized: r0:TDELIM( - )
#
DISCID=bd12180e
DTITLE=TranceInk presents - Club Mocha Gospel Vol. 1
DYEAR=1900
DGENRE=
TTITLE0=Be Encouraged - William Becton
TTITLE1=Ain't No Need to Worry - The Winans feat. Anita Baker
TTITLE2=Your Will - Darius Brooks
TTITLE3=Brighter Day - Kirk Franklin
TTITLE4=He Cares for You - Milton Brunson
TTITLE5=I Told the Storm - Greg O'Quin and Joyful Noize
TTITLE6=The Best is Yet to Come - Donald Lawrence
TTITLE7=Speak to My Heart - Donnie McClurkin
TTITLE8=The Battle is the Lord's - Yolanda Adams
TTITLE9=In the Morning - Mary Mary
TTITLE10=Long Time Comin' (Holdin' On) - The Winans
TTITLE11=Victory's Coming (rmx) - Men of Standard
TTITLE12=He's Able - John P. Kee
TTITLE13=Blessing In the Storm - Kirk Franklin
EXTD=
EXTT0=
EXTT1=
EXTT2=
EXTT3=
EXTT4=
EXTT5=
EXTT6=
EXTT7=
EXTT8=
EXTT9=
EXTT10=
EXTT11=
EXTT12=
EXTT13=
PLAYORDER=
